# xmcd
#
# Track frame offsets:
#	150
#	15702
#	32153
#	48526
#	64463
#	82000
#	100750
#	119687
#	134092
#	144680
#	159289
#
# Disc length: 2397 seconds
#
# Revision: 1844023966
# Processed by: cddbd v1.5.2PL0 Copyright (c) Steve Scherf et al.
# Submitted via: EZCDAudioConverter 8.0.7.1
#
DISCID=a2095b0b
DTITLE=Austin Lucas - Stay Reckless
DYEAR=2013
DGENRE=Country
TTITLE0=Let Me In
TTITLE1=Alone In Memphis
TTITLE2=Four Wheels
TTITLE3=Small Town Heart
TTITLE4=Rings
TTITLE5=Save It For Yourself
TTITLE6=Different Shade Of Red
TTITLE7=Stay Reckless
TTITLE8=So Much More Than Lonely
TTITLE9=Gift And A Gamble
TTITLE10=Splinters
EXTD=
EXTT0=
EXTT1=
EXTT2=
EXTT3=
EXTT4=
EXTT5=
EXTT6=
EXTT7=
EXTT8=
EXTT9=
EXTT10=
PLAYORDER=
